<?xml version="1.0" standalone="no"?>
<!DOCTYPE svg PUBLIC "-//W3C//DTD SVG 1.1//EN"
 "http://www.w3.org/Graphics/SVG/1.1/DTD/svg11.dtd">
<!-- Created with svg_stack (http://github.com/astraw/svg_stack) -->
<svg xmlns:sodipodi="http://sodipodi.sourceforge.net/DTD/sodipodi-0.dtd" xmlns:xlink="http://www.w3.org/1999/xlink" xmlns="http://www.w3.org/2000/svg" version="1.1" width="1920.0" height="640.0">
  <defs><filter id="id1:alpha" filterUnits="objectBoundingBox" x="0%" y="0%" width="100%" height="100%">
  <feColorMatrix type="matrix" in="SourceGraphic" values="0 0 0 0 1 0 0 0 0 1 0 0 0 0 1 0 0 0 1 0"/>
</filter>
<mask id="id1:mask0">
  <g filter="url(#id1:alpha)">
<rect x="0" y="0" width="512" height="512" style="fill:rgb(0%,0%,0%);fill-opacity:0.643137;stroke:none;"/>
  </g>
</mask>
<radialGradient id="id1:radial0" gradientUnits="userSpaceOnUse" cx="-20.6494" cy="-408.3594" fx="-20.6494" fy="-408.3594" r="17.25" gradientTransform="matrix(12.366933,0,0,-5.358933,516.932267,-1785.7856)">
<stop offset="0" style="stop-color:rgb(0%,0%,0%);stop-opacity:1;"/>
<stop offset="1" style="stop-color:rgb(0%,0%,0%);stop-opacity:0;"/>
</radialGradient>
<clipPath id="id1:clip1">
  <rect width="512" height="512"/>
</clipPath>
<g id="id1:surface6" clip-path="url(#id1:clip1)">
<path style=" stroke:none;fill-rule:nonzero;fill:url(#id1:radial0);" d="M 474.890625 402.644531 C 474.890625 453.707031 379.371094 495.09375 261.558594 495.09375 C 143.734375 495.09375 48.222656 453.707031 48.222656 402.644531 C 48.222656 351.59375 143.734375 310.207031 261.558594 310.207031 C 379.371094 310.207031 474.890625 351.59375 474.890625 402.644531 Z M 474.890625 402.644531 "/>
</g>
<radialGradient id="id1:radial1" gradientUnits="userSpaceOnUse" cx="14.4424" cy="21.6055" fx="14.4424" fy="21.6055" r="29.7564" gradientTransform="matrix(1.0284,0,0,-1.0284,9.7477,34.6175)">
<stop offset="0" style="stop-color:rgb(3.137255%,94.117647%,0%);stop-opacity:1;"/>
<stop offset="1" style="stop-color:rgb(4.313725%,48.235294%,0%);stop-opacity:1;"/>
</radialGradient>
<radialGradient id="id1:radial2" gradientUnits="userSpaceOnUse" cx="15.9395" cy="12.6724" fx="15.9395" fy="12.6724" r="18.6239" gradientTransform="matrix(10.967467,0,0,-10.967467,81.1776,303.828267)">
<stop offset="0" style="stop-color:rgb(100%,100%,100%);stop-opacity:1;"/>
<stop offset="1" style="stop-color:rgb(87.45098%,87.45098%,87.45098%);stop-opacity:1;"/>
</radialGradient>
<mask id="id1:mask1">
  <g filter="url(#id1:alpha)">
<rect x="0" y="0" width="512" height="512" style="fill:rgb(0%,0%,0%);fill-opacity:0.376471;stroke:none;"/>
  </g>
</mask>
<linearGradient id="id1:linear0" gradientUnits="userSpaceOnUse" x1="-281.5" y1="420.5" x2="-280.5" y2="420.5">
<stop offset="0" style="stop-color:rgb(100%,100%,100%);stop-opacity:1;"/>
<stop offset="1" style="stop-color:rgb(100%,100%,100%);stop-opacity:0;"/>
</linearGradient>
<clipPath id="id1:clip2">
  <rect width="512" height="512"/>
</clipPath>
<g id="id1:surface9" clip-path="url(#id1:clip2)">
<path style="fill:none;stroke-width:1.5891;stroke-linecap:butt;stroke-linejoin:miter;stroke:url(#id1:linear0);stroke-miterlimit:4;" d="M 42.232178 23.024048 C 42.232178 33.106934 34.057983 41.281128 23.975098 41.281128 C 13.891846 41.281128 5.719116 33.106934 5.719116 23.024048 C 5.719116 12.941162 13.892944 4.768066 23.975098 4.768066 C 34.059082 4.768066 42.232178 12.941162 42.232178 23.024048 Z M 42.232178 23.024048 " transform="matrix(10.666667,0,0,10.666667,0,0)"/>
</g>
<mask id="id1:mask2">
  <g filter="url(#id1:alpha)">
<rect x="0" y="0" width="512" height="512" style="fill:rgb(0%,0%,0%);fill-opacity:0.380392;stroke:none;"/>
  </g>
</mask>
<linearGradient id="id1:linear1" gradientUnits="userSpaceOnUse" x1="-281.5" y1="420.5" x2="-280.5" y2="420.5">
<stop offset="0" style="stop-color:rgb(100%,100%,100%);stop-opacity:1;"/>
<stop offset="1" style="stop-color:rgb(100%,100%,100%);stop-opacity:0;"/>
</linearGradient>
<clipPath id="id1:clip3">
  <rect width="512" height="512"/>
</clipPath>
<g id="id1:surface12" clip-path="url(#id1:clip3)">
<path style="fill:none;stroke-width:0.956;stroke-linecap:round;stroke-linejoin:round;stroke:url(#id1:linear1);stroke-miterlimit:4;" d="M 29.288086 13.706909 L 25.840942 20.040161 L 22.769897 25.624878 C 22.669922 25.724854 22.70105 26.043091 22.268921 26.152954 C 21.968994 26.229858 21.915161 26.118164 21.599854 25.916016 L 17.741821 22.868042 C 17.312988 22.523071 17.326172 22.541016 17.021118 22.847168 L 15.472046 24.800903 C 15.053833 25.248047 15.11792 25.517944 15.639038 25.851929 C 15.639038 25.851929 22.899902 31.836182 22.909058 31.840942 C 22.99585 31.887817 22.958862 31.903931 23.329834 32.161011 C 23.567871 32.326904 23.778076 31.802124 23.931885 31.520874 L 32.760132 15.413086 C 32.960083 15.046875 32.945068 15.052002 32.574829 14.849854 L 29.942871 13.453857 C 29.56311 13.249146 29.560913 13.250977 29.288086 13.706909 Z M 29.288086 13.706909 " transform="matrix(10.666667,0,0,10.666667,0,0)"/>
</g>
</defs>
  <g id="id0:id0" transform="matrix(1.25,0,0,1.25,0.0,0.0)"><g id="id0:surface1">
<path style=" stroke:none;fill-rule:nonzero;fill:rgb(81.960784%,11.372549%,7.45098%);fill-opacity:1;" d="M 256.019531 44.480469 C 139.15625 44.480469 44.480469 139.15625 44.480469 256.019531 C 44.480469 372.84375 139.15625 467.519531 256.019531 467.519531 C 372.84375 467.519531 467.519531 372.84375 467.519531 256.019531 C 467.519531 139.15625 372.84375 44.480469 256.019531 44.480469 Z M 256.042969 428.480469 C 160.789062 428.480469 83.585938 351.273438 83.585938 256.042969 C 83.585938 160.789062 160.789062 83.585938 256.042969 83.585938 C 351.273438 83.585938 428.480469 160.789062 428.480469 256.042969 C 428.480469 351.273438 351.273438 428.480469 256.042969 428.480469 Z M 256.042969 428.480469 "/>
<path style=" stroke:none;fill-rule:nonzero;fill:rgb(0%,0%,0%);fill-opacity:1;" d="M 187.296875 363.183594 L 186.070312 361.871094 L 151.753906 325.070312 C 151.753906 325.070312 176.085938 302.390625 223.578125 258.105469 L 172.851562 203.710938 L 207.109375 171.773438 L 257.832031 226.164062 L 326.34375 162.277344 L 361.890625 200.398438 L 293.378906 264.671875 L 348.257812 325.410156 L 316.929688 356.867188 L 259.121094 296.617188 Z M 187.296875 363.183594 "/>
</g>
</g>
  <g id="id1:id1" transform="matrix(1.25,0,0,1.25,640.0,0.0)"><g id="id1:surface1">
<use xlink:href="#id1:surface6" mask="url(#id1:mask0)"/>
<path style="fill-rule:nonzero;fill:url(#id1:radial1);stroke-width:1.4896;stroke-linecap:butt;stroke-linejoin:miter;stroke:rgb(9.803922%,47.843137%,10.588235%);stroke-opacity:1;stroke-miterlimit:4;" d="M 43.450928 23.024048 C 43.450928 33.780029 34.731079 42.499878 23.975098 42.499878 C 13.219116 42.499878 4.5 33.780029 4.5 23.024048 C 4.5 12.268066 13.219116 3.547852 23.975098 3.547852 C 34.731079 3.54895 43.450928 12.268066 43.450928 23.024048 Z M 43.450928 23.024048 " transform="matrix(10.666667,0,0,10.666667,0,0)"/>
<path style=" stroke:none;fill-rule:nonzero;fill:url(#id1:radial2);" d="M 411.125 242.644531 C 411.125 328.332031 341.664062 397.792969 255.980469 397.792969 C 170.292969 397.792969 100.832031 328.332031 100.832031 242.644531 C 100.832031 156.960938 170.292969 87.5 255.980469 87.5 C 341.664062 87.5 411.125 156.960938 411.125 242.644531 Z M 411.125 242.644531 "/>
<use xlink:href="#id1:surface9" mask="url(#id1:mask1)"/>
<path style="fill-rule:nonzero;fill:rgb(3.137255%,58.823529%,0%);fill-opacity:1;stroke-width:0.956;stroke-linecap:round;stroke-linejoin:round;stroke:rgb(9.803922%,47.843137%,10.588235%);stroke-opacity:1;stroke-miterlimit:4;" d="M 29.713989 12.751831 C 29.403076 12.719971 29.093994 12.873047 28.935059 13.164917 L 22.133057 25.610962 L 17.760132 22.134155 C 17.369019 21.921021 16.884155 22.057983 16.671021 22.446899 L 14.709961 24.964966 C 14.496094 25.35498 14.641113 25.839844 15.028931 26.052979 C 15.028931 26.052979 23.014893 32.64917 23.025146 32.653931 C 23.115967 32.704102 23.211914 32.729004 23.30896 32.741089 C 23.625 32.781006 23.949829 32.633057 24.113159 32.333862 L 33.286011 15.54895 C 33.499878 15.158936 33.355957 14.674072 32.967041 14.460938 L 30.02417 12.845947 C 29.926025 12.792114 29.816895 12.762817 29.713989 12.751831 Z M 29.713989 12.751831 " transform="matrix(10.666667,0,0,10.666667,0,0)"/>
<use xlink:href="#id1:surface12" mask="url(#id1:mask2)"/>
</g>
</g>
  <g id="id2:id2" transform="matrix(1.25,0,0,1.25,1280.0,0.0)"><g id="id2:surface1">
<path style=" stroke:none;fill-rule:nonzero;fill:rgb(100%,100%,100%);fill-opacity:1;" d="M 28.558594 256.0625 L 255.761719 483.265625 L 483 256.023438 C 407.230469 180.339844 331.609375 104.507812 255.800781 28.863281 Z M 28.558594 256.0625 "/>
<path style=" stroke:none;fill-rule:nonzero;fill:rgb(50.196078%,50.196078%,50.196078%);fill-opacity:1;" d="M 130.527344 130.839844 L 5.304688 256.0625 L 130.535156 381.296875 L 255.757812 506.519531 L 506.257812 256.019531 L 381.050781 130.816406 C 312.191406 61.953125 255.828125 5.605469 255.800781 5.605469 C 255.777344 5.605469 199.402344 61.964844 130.527344 130.839844 Z M 361.210938 150.652344 L 466.582031 256.019531 L 361.171875 361.433594 L 255.757812 466.835938 L 150.398438 361.425781 L 45.039062 256.003906 L 150.398438 150.644531 C 208.351562 92.691406 255.777344 45.285156 255.800781 45.285156 C 255.828125 45.285156 303.261719 92.699219 361.210938 150.652344 Z M 361.210938 150.652344 "/>
<path style=" stroke:none;fill-rule:nonzero;fill:rgb(25.098039%,25.098039%,25.098039%);fill-opacity:1;" d="M 258.675781 125.910156 C 231.765625 125.910156 192.292969 144.449219 192.292969 176.878906 C 192.292969 190.46875 199.761719 199.117188 210.523438 199.117188 C 229.65625 199.117188 233.5625 168.535156 258.675781 168.535156 C 271.230469 168.535156 283.480469 178.425781 283.480469 192.015625 C 283.480469 209.929688 271.515625 214.863281 259.558594 218.257812 C 247.300781 221.65625 235.332031 223.523438 235.332031 234.640625 L 235.332031 265.523438 C 235.332031 277.875 243.425781 286.824219 256.878906 286.824219 C 269.433594 286.824219 278.398438 277.878906 278.398438 265.523438 L 278.398438 254.390625 C 309.191406 246.363281 330.109375 226.296875 330.109375 192.015625 C 330.109375 150.632812 297.238281 125.910156 258.675781 125.910156 Z M 257.484375 304.03125 C 257.046875 304.03125 256.617188 304.042969 256.214844 304.0625 C 249.582031 304.34375 243.316406 307.164062 238.398438 312.097656 C 236.910156 313.585938 235.976562 314.738281 234.804688 316.492188 C 232.09375 320.574219 230.617188 324.542969 229.890625 329.863281 C 229.75 330.929688 229.738281 335.777344 229.890625 336.960938 C 230.609375 342.808594 232.75 347.976562 236.296875 352.429688 C 237.160156 353.515625 238.910156 355.332031 239.972656 356.242188 C 243.179688 358.992188 247.054688 361.046875 250.9375 362.015625 C 253.480469 362.652344 254.792969 362.789062 257.542969 362.789062 C 260.25 362.789062 261.636719 362.644531 264.03125 362.042969 C 270.566406 360.414062 276.429688 356.214844 280.332031 350.359375 C 283.207031 346.03125 284.859375 341.222656 285.304688 335.910156 C 285.421875 334.484375 285.339844 330.867188 285.164062 329.613281 C 284.671875 325.980469 283.800781 323.019531 282.320312 319.972656 C 278.152344 311.410156 270.199219 305.5 261.1875 304.253906 C 260.203125 304.121094 258.804688 304.035156 257.484375 304.03125 Z M 257.484375 304.03125 "/>
</g>
</g>
</svg>
