<?xml version="1.0" encoding="UTF-8"?>
<svg xmlns="http://www.w3.org/2000/svg" xmlns:xlink="http://www.w3.org/1999/xlink" width="512pt" height="512pt" viewBox="0 0 512 512" version="1.1">
<g id="surface1">
<path style=" stroke:none;fill-rule:nonzero;fill:rgb(81.960784%,11.372549%,7.45098%);fill-opacity:1;" d="M 256.019531 44.480469 C 139.15625 44.480469 44.480469 139.15625 44.480469 256.019531 C 44.480469 372.84375 139.15625 467.519531 256.019531 467.519531 C 372.84375 467.519531 467.519531 372.84375 467.519531 256.019531 C 467.519531 139.15625 372.84375 44.480469 256.019531 44.480469 Z M 256.042969 428.480469 C 160.789062 428.480469 83.585938 351.273438 83.585938 256.042969 C 83.585938 160.789062 160.789062 83.585938 256.042969 83.585938 C 351.273438 83.585938 428.480469 160.789062 428.480469 256.042969 C 428.480469 351.273438 351.273438 428.480469 256.042969 428.480469 Z M 256.042969 428.480469 "/>
<path style=" stroke:none;fill-rule:nonzero;fill:rgb(0%,0%,0%);fill-opacity:1;" d="M 187.296875 363.183594 L 186.070312 361.871094 L 151.753906 325.070312 C 151.753906 325.070312 176.085938 302.390625 223.578125 258.105469 L 172.851562 203.710938 L 207.109375 171.773438 L 257.832031 226.164062 L 326.34375 162.277344 L 361.890625 200.398438 L 293.378906 264.671875 L 348.257812 325.410156 L 316.929688 356.867188 L 259.121094 296.617188 Z M 187.296875 363.183594 "/>
</g>
</svg>
