<?xml version="1.0" encoding="UTF-8" standalone="no"?>
<svg
   xmlns:dc="http://purl.org/dc/elements/1.1/"
   xmlns:cc="http://creativecommons.org/ns#"
   xmlns:rdf="http://www.w3.org/1999/02/22-rdf-syntax-ns#"
   xmlns:svg="http://www.w3.org/2000/svg"
   xmlns="http://www.w3.org/2000/svg"
   xmlns:sodipodi="http://sodipodi.sourceforge.net/DTD/sodipodi-0.dtd"
   xmlns:inkscape="http://www.inkscape.org/namespaces/inkscape"
   style="enable-background:new 0 0 24 24;"
   version="1.1"
   viewBox="0 0 24 24"
   xml:space="preserve"
   id="svg9"
   sodipodi:docname="refresh.svg"
   inkscape:version="0.92.1 r15371"><metadata
     id="metadata15"><rdf:RDF><cc:Work
         rdf:about=""><dc:format>image/svg+xml</dc:format><dc:type
           rdf:resource="http://purl.org/dc/dcmitype/StillImage" /></cc:Work></rdf:RDF></metadata><defs
     id="defs13" /><sodipodi:namedview
     pagecolor="#ffffff"
     bordercolor="#666666"
     borderopacity="1"
     objecttolerance="10"
     gridtolerance="10"
     guidetolerance="10"
     inkscape:pageopacity="0"
     inkscape:pageshadow="2"
     inkscape:window-width="1202"
     inkscape:window-height="931"
     id="namedview11"
     showgrid="false"
     inkscape:zoom="9.8333333"
     inkscape:cx="-3.4576271"
     inkscape:cy="12"
     inkscape:window-x="813"
     inkscape:window-y="257"
     inkscape:window-maximized="0"
     inkscape:current-layer="svg9" /><g
     id="info" /><g
     id="icons"><g
       id="reload"><path
         d="M23,5.4v-2c0-0.9-1.1-1.3-1.7-0.7l-2.2,2.2C17.4,3.7,15.3,3,13,3C9.2,3,5.8,5,4.1,7.4C3.7,8.1,4.2,9,5,9h0    c0.3,0,0.6-0.2,0.8-0.5C7.1,6.8,9.4,6,12,6c1.8,0,3.5,0.4,4.8,1.2l-2.1,2.1c-0.6,0.6-0.2,1.7,0.7,1.7h2H22h0c0.6,0,1-0.4,1-1V5.4    C23,5.4,23,5.4,23,5.4z"
         id="path3"
         style="fill:#ffff00" /><path
         d="M19.7,15L19.7,15c-0.4,0-0.7,0.2-0.9,0.5c-1.2,1.7-3.5,2.5-6.1,2.5c-2,0-3.9-0.5-5.1-1.5l1.8-1.8C9.9,14.1,9.5,13,8.6,13    h-2H2c-0.6,0-1,0.4-1,1v4.6v2c0,0.9,1.1,1.3,1.7,0.7l2.4-2.4c1.7,1.3,4,2.1,6.5,2.1c3.9,0,7.2-2,8.9-4.5C21,15.9,20.5,15,19.7,15z    "
         id="path5"
         style="fill:#ffff00" /></g></g></svg>