<?xml version="1.0" encoding="UTF-8"?>
<svg xmlns="http://www.w3.org/2000/svg" xmlns:xlink="http://www.w3.org/1999/xlink" width="512pt" height="512pt" viewBox="0 0 512 512" version="1.1">
<g id="surface1">
<path style=" stroke:none;fill-rule:nonzero;fill:rgb(100%,100%,0%);fill-opacity:1;" d="M 490.667969 115.199219 L 490.667969 72.535156 C 490.667969 53.332031 467.199219 44.800781 454.398438 57.601562 L 407.464844 104.535156 C 371.199219 78.933594 326.398438 64 277.332031 64 C 196.265625 64 123.734375 106.667969 87.464844 157.867188 C 78.933594 172.800781 89.601562 192 106.667969 192 C 113.066406 192 119.464844 187.734375 123.734375 181.332031 C 151.464844 145.066406 200.535156 128 256 128 C 294.398438 128 330.667969 136.535156 358.398438 153.601562 L 313.601562 198.398438 C 300.800781 211.199219 309.332031 234.667969 328.535156 234.667969 L 469.332031 234.667969 C 482.132812 234.667969 490.667969 226.132812 490.667969 213.332031 Z M 490.667969 115.199219 "/>
<path style=" stroke:none;fill-rule:nonzero;fill:rgb(100%,100%,0%);fill-opacity:1;" d="M 420.265625 320 C 411.734375 320 405.332031 324.265625 401.066406 330.667969 C 375.464844 366.933594 326.398438 384 270.933594 384 C 228.265625 384 187.734375 373.332031 162.132812 352 L 200.535156 313.601562 C 211.199219 300.800781 202.667969 277.332031 183.464844 277.332031 L 42.667969 277.332031 C 29.867188 277.332031 21.332031 285.867188 21.332031 298.667969 L 21.332031 439.464844 C 21.332031 458.667969 44.800781 467.199219 57.601562 454.398438 L 108.800781 403.199219 C 145.066406 430.933594 194.132812 448 247.464844 448 C 330.667969 448 401.066406 405.332031 437.332031 352 C 448 339.199219 437.332031 320 420.265625 320 Z M 420.265625 320 "/>
</g>
</svg>
