<?xml version="1.0" encoding="UTF-8"?>
<svg xmlns="http://www.w3.org/2000/svg" xmlns:xlink="http://www.w3.org/1999/xlink" width="512pt" height="512pt" viewBox="0 0 512 512" version="1.1">
<g id="surface1">
<path style=" stroke:none;fill-rule:nonzero;fill:rgb(100%,100%,100%);fill-opacity:1;" d="M 28.558594 256.0625 L 255.761719 483.265625 L 483 256.023438 C 407.230469 180.339844 331.609375 104.507812 255.800781 28.863281 Z M 28.558594 256.0625 "/>
<path style=" stroke:none;fill-rule:nonzero;fill:rgb(50.196078%,50.196078%,50.196078%);fill-opacity:1;" d="M 130.527344 130.839844 L 5.304688 256.0625 L 130.535156 381.296875 L 255.757812 506.519531 L 506.257812 256.019531 L 381.050781 130.816406 C 312.191406 61.953125 255.828125 5.605469 255.800781 5.605469 C 255.777344 5.605469 199.402344 61.964844 130.527344 130.839844 Z M 361.210938 150.652344 L 466.582031 256.019531 L 361.171875 361.433594 L 255.757812 466.835938 L 150.398438 361.425781 L 45.039062 256.003906 L 150.398438 150.644531 C 208.351562 92.691406 255.777344 45.285156 255.800781 45.285156 C 255.828125 45.285156 303.261719 92.699219 361.210938 150.652344 Z M 361.210938 150.652344 "/>
<path style=" stroke:none;fill-rule:nonzero;fill:rgb(25.098039%,25.098039%,25.098039%);fill-opacity:1;" d="M 258.675781 125.910156 C 231.765625 125.910156 192.292969 144.449219 192.292969 176.878906 C 192.292969 190.46875 199.761719 199.117188 210.523438 199.117188 C 229.65625 199.117188 233.5625 168.535156 258.675781 168.535156 C 271.230469 168.535156 283.480469 178.425781 283.480469 192.015625 C 283.480469 209.929688 271.515625 214.863281 259.558594 218.257812 C 247.300781 221.65625 235.332031 223.523438 235.332031 234.640625 L 235.332031 265.523438 C 235.332031 277.875 243.425781 286.824219 256.878906 286.824219 C 269.433594 286.824219 278.398438 277.878906 278.398438 265.523438 L 278.398438 254.390625 C 309.191406 246.363281 330.109375 226.296875 330.109375 192.015625 C 330.109375 150.632812 297.238281 125.910156 258.675781 125.910156 Z M 257.484375 304.03125 C 257.046875 304.03125 256.617188 304.042969 256.214844 304.0625 C 249.582031 304.34375 243.316406 307.164062 238.398438 312.097656 C 236.910156 313.585938 235.976562 314.738281 234.804688 316.492188 C 232.09375 320.574219 230.617188 324.542969 229.890625 329.863281 C 229.75 330.929688 229.738281 335.777344 229.890625 336.960938 C 230.609375 342.808594 232.75 347.976562 236.296875 352.429688 C 237.160156 353.515625 238.910156 355.332031 239.972656 356.242188 C 243.179688 358.992188 247.054688 361.046875 250.9375 362.015625 C 253.480469 362.652344 254.792969 362.789062 257.542969 362.789062 C 260.25 362.789062 261.636719 362.644531 264.03125 362.042969 C 270.566406 360.414062 276.429688 356.214844 280.332031 350.359375 C 283.207031 346.03125 284.859375 341.222656 285.304688 335.910156 C 285.421875 334.484375 285.339844 330.867188 285.164062 329.613281 C 284.671875 325.980469 283.800781 323.019531 282.320312 319.972656 C 278.152344 311.410156 270.199219 305.5 261.1875 304.253906 C 260.203125 304.121094 258.804688 304.035156 257.484375 304.03125 Z M 257.484375 304.03125 "/>
</g>
</svg>
